<?xml version="1.0" encoding="UTF-8" standalone="no"?>
<!DOCTYPE svg PUBLIC "-//W3C//DTD SVG 1.1//EN" "http://www.w3.org/Graphics/SVG/1.1/DTD/svg11.dtd">
<svg xmlns="http://www.w3.org/2000/svg" version="1.1" viewBox="0.00 0.00 387.00 140.00">
<g stroke-width="2.00" fill="none" stroke-linecap="butt">
<path stroke="#1b1880" vector-effect="non-scaling-stroke" d="
  M 211.08 34.58
  L 218.24 40.69
  Q 218.76 41.13 218.84 40.46
  L 220.86 22.93"
/>
<path stroke="#1b1880" vector-effect="non-scaling-stroke" d="
  M 294.06 57.82
  Q 296.30 58.79 298.85 58.38"
/>
<path stroke="#1b1880" vector-effect="non-scaling-stroke" d="
  M 303.84 60.65
  Q 311.35 64.81 316.89 71.65
  Q 317.26 72.11 317.74 71.76
  L 319.04 70.79
  A 0.70 0.70 0.0 0 0 319.18 69.81
  L 306.16 52.65
  Q 305.63 51.96 304.83 52.28
  L 299.43 54.45
  A 0.52 0.51 -13.5 0 1 298.72 54.02
  L 297.36 37.98"
/>
<path stroke="#1b1880" vector-effect="non-scaling-stroke" d="
  M 337.53 48.18
  Q 337.70 49.56 338.73 50.27
  Q 339.15 50.57 339.55 50.22
  L 359.34 32.64"
/>
<path stroke="#1b1880" vector-effect="non-scaling-stroke" d="
  M 380.25 136.91
  L 339.09 94.55
  Q 338.71 94.16 338.31 94.53
  Q 336.30 96.38 335.23 98.93"
/>
<path stroke="#1b1880" vector-effect="non-scaling-stroke" d="
  M 324.50 114.00
  L 322.91 114.37
  Q 322.41 114.49 322.09 114.08
  L 314.74 104.59
  Q 312.73 101.99 313.55 105.18
  L 315.50 112.76
  Q 315.64 113.32 315.10 113.50
  C 300.03 118.49 278.03 117.35 267.40 103.82
  Q 266.48 102.65 265.27 101.83
  Q 264.79 101.51 264.34 101.88
  C 250.59 113.19 232.73 111.77 216.48 107.90
  Q 215.58 107.68 215.73 106.77
  L 220.35 77.50
  A 0.53 0.53 0.0 0 0 219.49 77.00
  C 216.82 79.19 213.56 82.03 210.20 83.13
  Q 208.69 83.62 207.26 84.32
  C 203.25 86.30 199.44 87.11 195.22 87.97
  Q 194.71 88.07 194.76 88.59
  L 195.01 91.26"
/>
<path stroke="#1b1880" vector-effect="non-scaling-stroke" d="
  M 193.95 111.92
  Q 193.84 111.39 193.54 111.00
  Q 193.22 110.58 192.74 110.34
  L 146.42 87.40
  Q 145.80 87.09 145.82 87.79
  L 145.99 93.53"
/>
<path stroke="#1b1880" vector-effect="non-scaling-stroke" d="
  M 143.77 109.09
  L 143.07 108.79
  Q 142.56 108.56 142.01 108.64
  L 122.80 111.29
  A 0.57 0.56 -7.5 0 1 122.16 110.80
  L 121.12 101.71
  Q 121.02 100.91 120.40 101.41
  L 114.69 105.98"
/>
<path stroke="#1b1880" vector-effect="non-scaling-stroke" d="
  M 112.62 107.56
  L 112.16 107.17
  Q 111.79 106.86 111.34 107.04
  C 93.09 114.52 75.99 103.54 76.46 83.94
  Q 76.48 83.12 75.83 83.62
  L 71.45 86.93
  Q 70.98 87.29 71.12 87.86
  L 74.81 102.41"
/>
<path stroke="#1b1880" vector-effect="non-scaling-stroke" d="
  M 77.61 121.81
  L 55.90 128.57
  A 1.29 1.29 0.0 0 1 54.34 127.87
  L 27.78 68.76
  A 0.50 0.49 -25.4 0 0 27.10 68.52
  L 21.98 71.18
  Q 21.51 71.43 21.24 70.97
  L 5.17 43.76"
/>
<path stroke="#1b1880" vector-effect="non-scaling-stroke" d="
  M 110.17 54.96
  L 116.35 56.89
  A 0.59 0.59 0.0 0 0 117.11 56.25
  L 116.22 49.21
  Q 116.13 48.50 115.44 48.68
  L 111.25 49.81
  A 0.61 0.61 0.0 0 1 110.48 49.24
  L 109.83 31.63"
/>
<path stroke="#1b1880" vector-effect="non-scaling-stroke" d="
  M 143.53 24.61
  L 142.74 32.52
  A 0.49 0.49 0.0 0 0 143.66 32.81
  L 150.24 20.81"
/>
<path stroke="#1b1880" vector-effect="non-scaling-stroke" d="
  M 175.37 36.19
  L 180.57 33.19
  Q 181.14 32.86 180.75 32.34
  L 177.69 28.25
  A 0.99 0.98 47.1 0 1 177.73 27.01
  L 201.01 0.10"
/>
<path stroke="#997f66" vector-effect="non-scaling-stroke" d="
  M 198.36 11.98
  L 186.78 25.91
  A 1.31 1.31 0.0 0 0 188.38 27.91
  L 203.89 19.94"
/>
<path stroke="#816580" vector-effect="non-scaling-stroke" d="
  M 203.89 19.94
  L 206.80 18.55
  A 0.55 0.55 0.0 0 0 207.03 17.75
  L 201.45 9.03
  A 0.47 0.46 -41.9 0 0 200.69 8.99
  L 198.36 11.98"
/>
<path stroke="#e7b44c" vector-effect="non-scaling-stroke" d="
  M 203.89 19.94
  L 198.36 11.98"
/>
<path stroke="#997f66" vector-effect="non-scaling-stroke" d="
  M 226.34 35.01
  L 224.28 52.79
  A 0.67 0.67 0.0 0 0 224.74 53.51
  L 229.72 55.07
  Q 230.31 55.25 230.22 55.87
  L 223.57 101.64
  A 0.96 0.96 0.0 0 0 224.38 102.73
  C 236.24 104.57 250.41 106.16 259.89 96.61"
/>
<path stroke="#816580" vector-effect="non-scaling-stroke" d="
  M 259.89 96.61
  Q 261.10 96.10 261.62 95.18
  Q 261.86 94.76 261.74 94.29
  C 258.08 80.60 262.82 67.78 275.09 60.93
  A 1.01 0.99 -15.9 0 0 275.60 60.03
  Q 275.08 41.89 258.40 35.32
  Q 243.63 29.50 227.46 29.75
  Q 226.92 29.75 226.86 30.29
  L 226.34 35.01"
/>
<path stroke="#e7b44c" vector-effect="non-scaling-stroke" d="
  M 259.89 96.61
  C 254.19 82.11 258.48 69.97 270.54 60.91
  A 0.91 0.90 -22.6 0 0 270.89 60.07
  Q 268.67 43.03 252.67 38.54
  Q 240.88 35.23 226.34 35.01"
/>
<path stroke="#997f66" vector-effect="non-scaling-stroke" d="
  M 116.07 38.58
  L 116.38 41.17
  Q 116.45 41.79 117.05 41.64
  L 121.06 40.64
  Q 121.99 40.41 122.07 41.37
  L 123.63 60.98
  Q 123.66 61.43 123.95 61.78
  Q 135.10 75.51 127.60 91.43
  C 125.86 95.12 126.71 99.74 127.39 103.60
  Q 127.49 104.15 128.04 104.08
  L 136.91 102.90"
/>
<path stroke="#816580" vector-effect="non-scaling-stroke" d="
  M 136.91 102.90
  L 139.13 102.54
  Q 139.72 102.45 139.72 101.85
  L 139.72 77.48"
/>
<path stroke="#997f66" vector-effect="non-scaling-stroke" d="
  M 139.72 77.48
  Q 139.89 76.94 140.50 77.25
  Q 162.69 88.32 185.43 99.78"
/>
<path stroke="#816580" vector-effect="non-scaling-stroke" d="
  M 185.43 99.78
  Q 186.45 100.63 187.88 100.94
  Q 188.50 101.08 188.50 100.44
  L 188.50 88.20
  Q 188.50 87.70 188.00 87.65
  Q 173.35 86.01 165.60 73.65
  A 1.53 1.50 84.1 0 0 164.86 73.04
  L 146.35 65.89"
/>
<path stroke="#997f66" vector-effect="non-scaling-stroke" d="
  M 146.35 65.89
  L 164.09 47.05"
/>
<path stroke="#816580" vector-effect="non-scaling-stroke" d="
  M 164.09 47.05
  L 166.29 44.76
  Q 166.76 44.27 166.27 43.80
  L 152.83 30.96
  Q 152.38 30.53 152.01 31.03
  L 149.89 33.89"
/>
<path stroke="#997f66" vector-effect="non-scaling-stroke" d="
  M 149.89 33.89
  L 137.52 51.30"
/>
<path stroke="#816580" vector-effect="non-scaling-stroke" d="
  M 137.52 51.30
  L 136.19 30.91
  Q 136.16 30.43 135.70 30.57
  Q 126.21 33.54 116.74 36.25
  Q 115.60 36.58 116.07 38.58"
/>
<path stroke="#e7b44c" vector-effect="non-scaling-stroke" d="
  M 137.52 51.30
  L 135.24 54.34
  A 0.44 0.44 0.0 0 1 134.45 54.10
  L 133.31 34.54
  A 0.79 0.78 -9.8 0 0 132.31 33.84
  L 116.07 38.58"
/>
<path stroke="#e7b44c" vector-effect="non-scaling-stroke" d="
  M 146.35 65.89
  L 144.70 67.85
  Q 143.92 68.79 145.06 69.24
  Q 153.00 72.31 160.88 75.48
  C 162.98 76.32 163.61 77.73 164.84 79.43
  C 169.41 85.74 176.07 89.37 183.87 90.30
  A 1.73 1.73 0.0 0 1 185.40 92.02
  L 185.43 99.78"
/>
<path stroke="#e7b44c" vector-effect="non-scaling-stroke" d="
  M 139.72 77.48
  Q 139.55 77.63 139.47 77.95
  Q 139.36 78.40 138.91 78.48
  Q 136.91 78.87 136.94 80.76
  Q 137.11 91.90 136.91 102.90"
/>
<path stroke="#e7b44c" vector-effect="non-scaling-stroke" d="
  M 164.09 47.05
  L 149.89 33.89"
/>
<path stroke="#997f66" vector-effect="non-scaling-stroke" d="
  M 18.04 43.70
  L 14.67 45.52
  Q 14.16 45.79 14.45 46.29
  L 23.65 61.89
  A 0.63 0.62 61.5 0 0 24.47 62.14
  L 30.09 59.37
  A 0.71 0.71 0.0 0 1 31.05 59.72
  L 58.08 120.01
  Q 58.34 120.60 58.95 120.40
  L 68.39 117.33"
/>
<path stroke="#816580" vector-effect="non-scaling-stroke" d="
  M 68.39 117.33
  Q 69.83 117.25 71.10 116.39
  Q 71.54 116.09 71.41 115.58
  L 63.35 84.64"
/>
<path stroke="#997f66" vector-effect="non-scaling-stroke" d="
  M 63.35 84.64
  Q 72.33 78.96 77.99 70.58"
/>
<path stroke="#816580" vector-effect="non-scaling-stroke" d="
  M 77.99 70.58
  C 89.09 56.26 83.33 39.37 66.29 34.31
  C 51.18 29.82 31.34 35.58 18.04 43.70"
/>
<path stroke="#e7b44c" vector-effect="non-scaling-stroke" d="
  M 77.99 70.58
  C 79.14 66.68 80.84 62.29 80.98 58.62
  C 81.31 50.14 75.40 42.84 68.20 39.16
  C 58.67 34.29 44.07 35.50 33.97 38.25
  C 29.49 39.46 23.69 42.43 18.04 43.70"
/>
<path stroke="#e7b44c" vector-effect="non-scaling-stroke" d="
  M 63.35 84.64
  C 61.20 85.79 60.18 86.46 60.84 89.12
  Q 64.40 103.38 68.39 117.33"
/>
<path stroke="#997f66" vector-effect="non-scaling-stroke" d="
  M 302.33 44.16
  L 302.98 47.69
  Q 303.11 48.41 303.78 48.12
  L 307.48 46.48
  Q 307.97 46.26 308.29 46.69
  L 326.99 71.75
  Q 327.74 72.76 326.73 73.50
  L 320.90 77.74
  Q 320.44 78.08 320.63 78.62
  Q 322.68 84.31 323.23 90.34
  A 0.79 0.79 0.0 0 1 322.66 91.17
  L 314.67 93.41
  Q 313.99 93.60 314.42 94.16
  L 320.27 101.91"
/>
<path stroke="#816580" vector-effect="non-scaling-stroke" d="
  M 320.27 101.91
  Q 320.64 102.96 321.22 103.52
  Q 321.65 103.93 322.05 103.49
  L 338.00 86.03"
/>
<path stroke="#997f66" vector-effect="non-scaling-stroke" d="
  M 338.00 86.03
  Q 338.63 85.45 339.56 86.44
  Q 346.92 94.22 374.33 122.44"
/>
<path stroke="#816580" vector-effect="non-scaling-stroke" d="
  M 374.33 122.44
  L 376.00 124.39
  A 0.45 0.44 -58.8 0 0 376.77 124.20
  L 380.39 108.99
  A 1.57 1.55 -62.4 0 0 379.92 107.46
  L 345.58 76.62"
/>
<path stroke="#997f66" vector-effect="non-scaling-stroke" d="
  M 345.58 76.62
  L 366.61 63.17"
/>
<path stroke="#816580" vector-effect="non-scaling-stroke" d="
  M 366.61 63.17
  L 368.92 61.67
  Q 369.49 61.30 369.12 60.72
  L 357.92 43.05
  Q 357.56 42.48 357.05 42.93
  L 355.41 44.37"
/>
<path stroke="#997f66" vector-effect="non-scaling-stroke" d="
  M 355.41 44.37
  L 337.06 61.64"
/>
<path stroke="#816580" vector-effect="non-scaling-stroke" d="
  M 337.06 61.64
  L 321.22 35.43
  A 0.76 0.75 63.6 0 0 320.31 35.12
  L 302.93 41.82
  Q 302.38 42.04 302.28 42.61
  Q 302.09 43.69 302.33 44.16"
/>
<path stroke="#e7b44c" vector-effect="non-scaling-stroke" d="
  M 337.06 61.64
  Q 336.97 62.23 335.96 62.80
  Q 335.41 63.10 335.05 62.59
  L 318.49 38.33
  A 1.27 1.26 61.1 0 0 316.95 37.88
  L 302.33 44.16"
/>
<path stroke="#e7b44c" vector-effect="non-scaling-stroke" d="
  M 355.41 44.37
  L 366.61 63.17"
/>
<path stroke="#e7b44c" vector-effect="non-scaling-stroke" d="
  M 345.58 76.62
  Q 343.87 77.08 343.14 78.45
  Q 342.88 78.92 343.28 79.28
  L 376.62 109.23
  A 1.61 1.61 0.0 0 1 377.11 110.80
  L 374.33 122.44"
/>
<path stroke="#e7b44c" vector-effect="non-scaling-stroke" d="
  M 338.00 86.03
  Q 336.19 84.86 334.56 86.31
  Q 327.87 92.29 320.27 101.91"
/>
<path stroke="#997f66" vector-effect="non-scaling-stroke" d="
  M 179.16 41.71
  C 161.54 53.99 167.67 80.21 189.75 81.26
  Q 204.31 81.95 215.59 72.11"
/>
<path stroke="#816580" vector-effect="non-scaling-stroke" d="
  M 215.59 72.11
  L 217.92 69.83
  Q 218.37 69.39 217.91 68.96
  L 208.82 60.55
  Q 208.35 60.12 207.91 60.57
  L 205.29 63.19"
/>
<path stroke="#997f66" vector-effect="non-scaling-stroke" d="
  M 205.29 63.19
  L 201.97 65.73"
/>
<path stroke="#816580" vector-effect="non-scaling-stroke" d="
  M 201.97 65.73
  Q 197.73 67.11 193.95 66.72"
/>
<path stroke="#997f66" vector-effect="non-scaling-stroke" d="
  M 193.95 66.72
  L 210.58 48.18"
/>
<path stroke="#816580" vector-effect="non-scaling-stroke" d="
  M 210.58 48.18
  L 212.72 45.83
  Q 213.08 45.44 212.74 45.03
  C 204.25 34.62 189.75 34.81 179.16 41.71"
/>
<path stroke="#e7b44c" vector-effect="non-scaling-stroke" d="
  M 210.58 48.18
  Q 201.92 38.97 189.99 39.71
  C 186.87 39.90 182.84 41.30 179.16 41.71"
/>
<path stroke="#e7b44c" vector-effect="non-scaling-stroke" d="
  M 193.95 66.72
  L 191.79 69.37
  Q 191.36 69.90 192.04 69.90
  Q 197.99 69.93 201.97 65.73"
/>
<path stroke="#e7b44c" vector-effect="non-scaling-stroke" d="
  M 205.29 63.19
  L 215.59 72.11"
/>
<path stroke="#1b1880" vector-effect="non-scaling-stroke" d="
  M 215.85 57.22
  L 216.17 57.55
  A 0.45 0.45 0.0 0 0 216.93 57.27
  L 217.27 52.73
  A 0.41 0.41 0.0 0 0 216.56 52.42
  Q 215.52 53.58 214.69 54.75
  Q 214.32 55.27 214.36 55.70
  Q 214.42 56.36 215.08 56.68
  Q 215.51 56.88 215.85 57.22"
/>
<path stroke="#1b1880" vector-effect="non-scaling-stroke" d="
  M 221.37 62.80
  A 0.43 0.43 0.0 0 0 222.04 62.77
  L 223.17 61.20
  A 0.43 0.43 0.0 0 0 222.99 60.56
  L 218.73 58.66
  A 0.43 0.43 0.0 0 0 218.23 59.34
  L 221.37 62.80"
/>
<path stroke="#997f66" vector-effect="non-scaling-stroke" d="
  M 92.89 65.49
  Q 83.46 72.11 82.28 82.51
  C 80.86 95.00 90.08 104.54 102.68 103.16
  Q 113.23 102.00 119.76 92.54"
/>
<path stroke="#816580" vector-effect="non-scaling-stroke" d="
  M 119.76 92.54
  C 136.29 72.93 112.45 49.43 92.89 65.49"
/>
<path stroke="#e7b44c" vector-effect="non-scaling-stroke" d="
  M 119.76 92.54
  C 124.10 81.25 122.89 68.09 109.65 63.95
  C 104.22 62.26 98.33 63.72 92.89 65.49"
/>
<path stroke="#997f66" vector-effect="non-scaling-stroke" d="
  M 285.89 64.95
  C 274.11 66.02 265.06 77.41 267.11 89.00
  C 269.96 105.11 289.82 111.64 303.64 109.63"
/>
<path stroke="#816580" vector-effect="non-scaling-stroke" d="
  M 303.64 109.63
  L 306.96 108.93
  Q 307.54 108.81 307.38 108.24
  L 304.00 96.48
  A 0.70 0.69 -12.4 0 0 303.23 95.99
  L 299.51 96.57"
/>
<path stroke="#997f66" vector-effect="non-scaling-stroke" d="
  M 299.51 96.57
  L 295.25 96.91"
/>
<path stroke="#816580" vector-effect="non-scaling-stroke" d="
  M 295.25 96.91
  Q 290.91 95.84 287.59 93.52"
/>
<path stroke="#997f66" vector-effect="non-scaling-stroke" d="
  M 287.59 93.52
  L 311.50 86.98"
/>
<path stroke="#816580" vector-effect="non-scaling-stroke" d="
  M 311.50 86.98
  L 314.96 85.99
  A 0.89 0.89 0.0 0 0 315.59 84.94
  C 312.65 71.08 299.41 63.46 285.89 64.95"
/>
<path stroke="#e7b44c" vector-effect="non-scaling-stroke" d="
  M 311.50 86.98
  C 310.12 73.55 298.34 66.53 285.89 64.95"
/>
<path stroke="#e7b44c" vector-effect="non-scaling-stroke" d="
  M 287.59 93.52
  L 284.46 94.40
  Q 283.88 94.57 284.38 94.90
  Q 289.51 98.30 295.25 96.91"
/>
<path stroke="#e7b44c" vector-effect="non-scaling-stroke" d="
  M 299.51 96.57
  L 303.64 109.63"
/>
<path stroke="#e7b44c" vector-effect="non-scaling-stroke" d="
  M 239.02 66.57
  Q 236.01 66.90 235.66 69.31
  Q 233.88 81.74 232.58 94.19
  Q 232.53 94.69 233.03 94.75
  Q 235.55 95.01 237.50 93.20"
/>
<path stroke="#997f66" vector-effect="non-scaling-stroke" d="
  M 237.50 93.20
  Q 246.21 90.78 248.45 89.45
  C 256.00 84.95 258.69 74.24 250.21 68.82
  C 248.17 67.52 241.07 64.60 239.02 66.57"
/>
<path stroke="#816580" vector-effect="non-scaling-stroke" d="
  M 237.50 93.20
  Q 236.72 93.41 236.30 92.97
  Q 236.01 92.66 236.09 91.95
  Q 237.47 79.54 239.23 67.17
  A 0.55 0.53 35.1 0 0 239.16 66.81
  L 239.02 66.57"
/>
<path stroke="#e7b44c" vector-effect="non-scaling-stroke" d="
  M 53.89 53.93
  Q 51.38 55.51 51.99 57.76
  Q 54.93 68.41 58.52 79.32
  A 0.63 0.63 0.0 0 0 59.40 79.68
  Q 61.21 78.76 61.18 77.49"
/>
<path stroke="#997f66" vector-effect="non-scaling-stroke" d="
  M 61.18 77.49
  Q 62.63 76.31 67.42 71.92
  C 79.25 61.10 67.28 45.79 53.89 53.93"
/>
<path stroke="#816580" vector-effect="non-scaling-stroke" d="
  M 61.18 77.49
  L 53.89 53.93"
/>
<path stroke="#e7b44c" vector-effect="non-scaling-stroke" d="
  M 181.66 51.53
  Q 173.46 59.27 181.83 68.29
  Q 182.21 68.71 182.71 68.43
  L 185.19 67.07"
/>
<path stroke="#997f66" vector-effect="non-scaling-stroke" d="
  M 185.19 67.07
  L 200.22 50.25
  Q 200.57 49.85 200.20 49.47
  C 194.62 43.75 186.24 45.54 181.66 51.53"
/>
<path stroke="#816580" vector-effect="non-scaling-stroke" d="
  M 185.19 67.07
  Q 178.17 61.10 181.66 51.53"
/>
<path stroke="#1b1880" vector-effect="non-scaling-stroke" d="
  M 192.10 52.92
  Q 193.50 52.14 194.02 51.11
  Q 194.29 50.59 193.72 50.45
  Q 189.32 49.41 188.38 52.09"
/>
<path stroke="#1b1880" vector-effect="non-scaling-stroke" d="
  M 64.85 67.36
  C 69.28 65.37 67.57 55.32 60.43 57.14
  Q 59.91 57.28 60.01 57.80
  Q 60.29 59.30 60.97 60.18"
/>
<path stroke="#e7b44c" vector-effect="non-scaling-stroke" d="
  M 95.79 70.76
  C 83.97 79.95 102.31 95.64 111.10 84.05"
/>
<path stroke="#997f66" vector-effect="non-scaling-stroke" d="
  M 111.10 84.05
  Q 118.59 79.19 115.61 70.69"
/>
<path stroke="#e7b44c" vector-effect="non-scaling-stroke" d="
  M 115.61 70.69
  Q 115.55 70.44 115.11 69.98
  Q 114.74 69.59 114.39 70.01
  L 112.36 72.42
  Q 112.00 72.85 112.14 73.39
  L 112.73 75.60"
/>
<path stroke="#997f66" vector-effect="non-scaling-stroke" d="
  M 112.73 75.60
  Q 103.58 79.27 101.96 70.99
  Q 101.87 70.56 102.02 70.14
  Q 103.42 66.37 107.19 65.79
  A 0.28 0.28 0.0 0 0 107.17 65.24
  Q 99.66 64.65 95.79 70.76"
/>
<path stroke="#816580" vector-effect="non-scaling-stroke" d="
  M 112.73 75.60
  L 115.61 70.69"
/>
<path stroke="#816580" vector-effect="non-scaling-stroke" d="
  M 111.10 84.05
  C 101.78 87.45 92.03 80.90 95.79 70.76"
/>
<path stroke="#e7b44c" vector-effect="non-scaling-stroke" d="
  M 286.03 74.05
  Q 274.62 75.90 276.60 88.13
  Q 276.70 88.73 277.30 88.77
  L 280.27 88.98"
/>
<path stroke="#997f66" vector-effect="non-scaling-stroke" d="
  M 280.27 88.98
  L 301.62 82.81
  Q 302.13 82.67 301.97 82.16
  Q 298.35 70.67 286.03 74.05"
/>
<path stroke="#816580" vector-effect="non-scaling-stroke" d="
  M 280.27 88.98
  Q 277.28 79.77 286.03 74.05"
/>
<path stroke="#1b1880" vector-effect="non-scaling-stroke" d="
  M 244.85 85.01
  C 251.20 81.98 251.80 75.48 245.09 72.14
  Q 244.59 71.89 244.29 72.36
  Q 243.37 73.77 243.95 75.53"
/>
<path stroke="#1b1880" vector-effect="non-scaling-stroke" d="
  M 293.26 80.48
  Q 294.88 81.00 295.73 80.19
  Q 296.12 79.81 295.73 79.43
  Q 293.04 76.75 290.27 77.82"
/>
</g>
<path fill="#33309a" d="
  M 200.06 0.00
  L 202.53 0.00
  L 213.95 18.12
  A 1.96 1.96 0.0 0 1 213.37 20.80
  Q 209.43 23.40 204.56 25.70
  C 202.58 26.64 200.79 28.49 198.35 29.11
  A 0.93 0.92 -52.9 0 0 198.60 30.93
  Q 204.65 30.74 211.08 34.58
  L 218.24 40.69
  Q 218.76 41.13 218.84 40.46
  L 220.86 22.93
  C 244.12 21.50 281.04 26.38 282.00 57.31
  Q 282.01 57.89 282.59 57.89
  L 294.06 57.82
  Q 296.30 58.79 298.85 58.38
  L 303.84 60.65
  Q 311.35 64.81 316.89 71.65
  Q 317.26 72.11 317.74 71.76
  L 319.04 70.79
  A 0.70 0.70 0.0 0 0 319.18 69.81
  L 306.16 52.65
  Q 305.63 51.96 304.83 52.28
  L 299.43 54.45
  A 0.52 0.51 -13.5 0 1 298.72 54.02
  L 297.36 37.98
  L 324.07 28.32
  Q 324.60 28.13 324.90 28.60
  L 337.53 48.18
  Q 337.70 49.56 338.73 50.27
  Q 339.15 50.57 339.55 50.22
  L 359.34 32.64
  L 378.10 64.34
  A 0.89 0.88 60.2 0 1 377.77 65.57
  L 356.47 77.21
  A 0.54 0.53 -38.8 0 0 356.37 78.08
  L 387.00 104.94
  L 387.00 108.73
  L 380.25 136.91
  L 339.09 94.55
  Q 338.71 94.16 338.31 94.53
  Q 336.30 96.38 335.23 98.93
  L 324.50 114.00
  L 322.91 114.37
  Q 322.41 114.49 322.09 114.08
  L 314.74 104.59
  Q 312.73 101.99 313.55 105.18
  L 315.50 112.76
  Q 315.64 113.32 315.10 113.50
  C 300.03 118.49 278.03 117.35 267.40 103.82
  Q 266.48 102.65 265.27 101.83
  Q 264.79 101.51 264.34 101.88
  C 250.59 113.19 232.73 111.77 216.48 107.90
  Q 215.58 107.68 215.73 106.77
  L 220.35 77.50
  A 0.53 0.53 0.0 0 0 219.49 77.00
  C 216.82 79.19 213.56 82.03 210.20 83.13
  Q 208.69 83.62 207.26 84.32
  C 203.25 86.30 199.44 87.11 195.22 87.97
  Q 194.71 88.07 194.76 88.59
  L 195.01 91.26
  Q 195.04 100.90 194.94 111.19
  Q 194.93 112.31 193.95 111.92
  Q 193.84 111.39 193.54 111.00
  Q 193.22 110.58 192.74 110.34
  L 146.42 87.40
  Q 145.80 87.09 145.82 87.79
  L 145.99 93.53
  Q 146.05 100.38 145.95 106.23
  C 145.93 107.83 145.12 108.52 143.77 109.09
  L 143.07 108.79
  Q 142.56 108.56 142.01 108.64
  L 122.80 111.29
  A 0.57 0.56 -7.5 0 1 122.16 110.80
  L 121.12 101.71
  Q 121.02 100.91 120.40 101.41
  L 114.69 105.98
  L 112.62 107.56
  L 112.16 107.17
  Q 111.79 106.86 111.34 107.04
  C 93.09 114.52 75.99 103.54 76.46 83.94
  Q 76.48 83.12 75.83 83.62
  L 71.45 86.93
  Q 70.98 87.29 71.12 87.86
  L 74.81 102.41
  C 76.09 107.19 79.27 115.60 79.03 119.87
  Q 78.89 122.31 77.61 121.81
  L 55.90 128.57
  A 1.29 1.29 0.0 0 1 54.34 127.87
  L 27.78 68.76
  A 0.50 0.49 -25.4 0 0 27.10 68.52
  L 21.98 71.18
  Q 21.51 71.43 21.24 70.97
  L 5.17 43.76
  C 21.26 31.66 41.26 24.53 61.57 26.63
  C 78.62 28.40 92.66 40.96 89.86 59.24
  A 0.74 0.74 0.0 0 0 91.02 59.96
  Q 99.07 54.32 110.17 54.96
  L 116.35 56.89
  A 0.59 0.59 0.0 0 0 117.11 56.25
  L 116.22 49.21
  Q 116.13 48.50 115.44 48.68
  L 111.25 49.81
  A 0.61 0.61 0.0 0 1 110.48 49.24
  L 109.83 31.63
  L 142.19 21.07
  A 0.60 0.59 -14.7 0 1 142.96 21.52
  L 143.53 24.61
  L 142.74 32.52
  A 0.49 0.49 0.0 0 0 143.66 32.81
  L 150.24 20.81
  L 169.34 37.65
  A 1.47 1.46 -22.3 0 0 170.23 38.02
  Q 173.02 38.19 175.37 36.19
  L 180.57 33.19
  Q 181.14 32.86 180.75 32.34
  L 177.69 28.25
  A 0.99 0.98 47.1 0 1 177.73 27.01
  L 201.01 0.10
  Q 200.53 0.05 200.06 0.00
  Z
  M 198.36 11.98
  L 186.78 25.91
  A 1.31 1.31 0.0 0 0 188.38 27.91
  L 203.89 19.94
  L 206.80 18.55
  A 0.55 0.55 0.0 0 0 207.03 17.75
  L 201.45 9.03
  A 0.47 0.46 -41.9 0 0 200.69 8.99
  L 198.36 11.98
  Z
  M 226.34 35.01
  L 224.28 52.79
  A 0.67 0.67 0.0 0 0 224.74 53.51
  L 229.72 55.07
  Q 230.31 55.25 230.22 55.87
  L 223.57 101.64
  A 0.96 0.96 0.0 0 0 224.38 102.73
  C 236.24 104.57 250.41 106.16 259.89 96.61
  Q 261.10 96.10 261.62 95.18
  Q 261.86 94.76 261.74 94.29
  C 258.08 80.60 262.82 67.78 275.09 60.93
  A 1.01 0.99 -15.9 0 0 275.60 60.03
  Q 275.08 41.89 258.40 35.32
  Q 243.63 29.50 227.46 29.75
  Q 226.92 29.75 226.86 30.29
  L 226.34 35.01
  Z
  M 116.07 38.58
  L 116.38 41.17
  Q 116.45 41.79 117.05 41.64
  L 121.06 40.64
  Q 121.99 40.41 122.07 41.37
  L 123.63 60.98
  Q 123.66 61.43 123.95 61.78
  Q 135.10 75.51 127.60 91.43
  C 125.86 95.12 126.71 99.74 127.39 103.60
  Q 127.49 104.15 128.04 104.08
  L 136.91 102.90
  L 139.13 102.54
  Q 139.72 102.45 139.72 101.85
  L 139.72 77.48
  Q 139.89 76.94 140.50 77.25
  Q 162.69 88.32 185.43 99.78
  Q 186.45 100.63 187.88 100.94
  Q 188.50 101.08 188.50 100.44
  L 188.50 88.20
  Q 188.50 87.70 188.00 87.65
  Q 173.35 86.01 165.60 73.65
  A 1.53 1.50 84.1 0 0 164.86 73.04
  L 146.35 65.89
  L 164.09 47.05
  L 166.29 44.76
  Q 166.76 44.27 166.27 43.80
  L 152.83 30.96
  Q 152.38 30.53 152.01 31.03
  L 149.89 33.89
  L 137.52 51.30
  L 136.19 30.91
  Q 136.16 30.43 135.70 30.57
  Q 126.21 33.54 116.74 36.25
  Q 115.60 36.58 116.07 38.58
  Z
  M 18.04 43.70
  L 14.67 45.52
  Q 14.16 45.79 14.45 46.29
  L 23.65 61.89
  A 0.63 0.62 61.5 0 0 24.47 62.14
  L 30.09 59.37
  A 0.71 0.71 0.0 0 1 31.05 59.72
  L 58.08 120.01
  Q 58.34 120.60 58.95 120.40
  L 68.39 117.33
  Q 69.83 117.25 71.10 116.39
  Q 71.54 116.09 71.41 115.58
  L 63.35 84.64
  Q 72.33 78.96 77.99 70.58
  C 89.09 56.26 83.33 39.37 66.29 34.31
  C 51.18 29.82 31.34 35.58 18.04 43.70
  Z
  M 302.33 44.16
  L 302.98 47.69
  Q 303.11 48.41 303.78 48.12
  L 307.48 46.48
  Q 307.97 46.26 308.29 46.69
  L 326.99 71.75
  Q 327.74 72.76 326.73 73.50
  L 320.90 77.74
  Q 320.44 78.08 320.63 78.62
  Q 322.68 84.31 323.23 90.34
  A 0.79 0.79 0.0 0 1 322.66 91.17
  L 314.67 93.41
  Q 313.99 93.60 314.42 94.16
  L 320.27 101.91
  Q 320.64 102.96 321.22 103.52
  Q 321.65 103.93 322.05 103.49
  L 338.00 86.03
  Q 338.63 85.45 339.56 86.44
  Q 346.92 94.22 374.33 122.44
  L 376.00 124.39
  A 0.45 0.44 -58.8 0 0 376.77 124.20
  L 380.39 108.99
  A 1.57 1.55 -62.4 0 0 379.92 107.46
  L 345.58 76.62
  L 366.61 63.17
  L 368.92 61.67
  Q 369.49 61.30 369.12 60.72
  L 357.92 43.05
  Q 357.56 42.48 357.05 42.93
  L 355.41 44.37
  L 337.06 61.64
  L 321.22 35.43
  A 0.76 0.75 63.6 0 0 320.31 35.12
  L 302.93 41.82
  Q 302.38 42.04 302.28 42.61
  Q 302.09 43.69 302.33 44.16
  Z
  M 179.16 41.71
  C 161.54 53.99 167.67 80.21 189.75 81.26
  Q 204.31 81.95 215.59 72.11
  L 217.92 69.83
  Q 218.37 69.39 217.91 68.96
  L 208.82 60.55
  Q 208.35 60.12 207.91 60.57
  L 205.29 63.19
  L 201.97 65.73
  Q 197.73 67.11 193.95 66.72
  L 210.58 48.18
  L 212.72 45.83
  Q 213.08 45.44 212.74 45.03
  C 204.25 34.62 189.75 34.81 179.16 41.71
  Z
  M 215.85 57.22
  L 216.17 57.55
  A 0.45 0.45 0.0 0 0 216.93 57.27
  L 217.27 52.73
  A 0.41 0.41 0.0 0 0 216.56 52.42
  Q 215.52 53.58 214.69 54.75
  Q 214.32 55.27 214.36 55.70
  Q 214.42 56.36 215.08 56.68
  Q 215.51 56.88 215.85 57.22
  Z
  M 221.37 62.80
  A 0.43 0.43 0.0 0 0 222.04 62.77
  L 223.17 61.20
  A 0.43 0.43 0.0 0 0 222.99 60.56
  L 218.73 58.66
  A 0.43 0.43 0.0 0 0 218.23 59.34
  L 221.37 62.80
  Z
  M 158.72 64.28
  Q 160.38 65.50 162.40 64.90
  Q 162.81 64.78 162.92 64.36
  Q 163.34 62.82 162.38 61.74
  Q 162.00 61.31 162.00 60.73
  L 162.00 59.44
  A 0.45 0.45 0.0 0 0 161.24 59.12
  L 156.97 63.42
  A 0.34 0.34 0.0 0 0 157.22 64.00
  L 157.86 64.00
  Q 158.33 64.00 158.72 64.28
  Z
  M 92.89 65.49
  Q 83.46 72.11 82.28 82.51
  C 80.86 95.00 90.08 104.54 102.68 103.16
  Q 113.23 102.00 119.76 92.54
  C 136.29 72.93 112.45 49.43 92.89 65.49
  Z
  M 285.89 64.95
  C 274.11 66.02 265.06 77.41 267.11 89.00
  C 269.96 105.11 289.82 111.64 303.64 109.63
  L 306.96 108.93
  Q 307.54 108.81 307.38 108.24
  L 304.00 96.48
  A 0.70 0.69 -12.4 0 0 303.23 95.99
  L 299.51 96.57
  L 295.25 96.91
  Q 290.91 95.84 287.59 93.52
  L 311.50 86.98
  L 314.96 85.99
  A 0.89 0.89 0.0 0 0 315.59 84.94
  C 312.65 71.08 299.41 63.46 285.89 64.95
  Z"
/>
<path fill="#020066" d="
  M 201.01 0.10
  L 177.73 27.01
  A 0.99 0.98 47.1 0 0 177.69 28.25
  L 180.75 32.34
  Q 181.14 32.86 180.57 33.19
  L 175.37 36.19
  L 171.25 31.77
  A 0.99 0.99 0.0 0 1 171.24 30.44
  C 178.23 22.66 185.38 14.88 191.73 6.74
  Q 195.23 2.25 201.01 0.10
  Z"
/>
<path fill="#ce9966" d="
  M 203.89 19.94
  L 198.36 11.98
  L 200.69 8.99
  A 0.47 0.46 -41.9 0 1 201.45 9.03
  L 207.03 17.75
  A 0.55 0.55 0.0 0 1 206.80 18.55
  L 203.89 19.94
  Z"
/>
<path fill="#ffce31" d="
  M 198.36 11.98
  L 203.89 19.94
  L 188.38 27.91
  A 1.31 1.31 0.0 0 1 186.78 25.91
  L 198.36 11.98
  Z"
/>
<path fill="#020066" d="
  M 150.24 20.81
  L 143.66 32.81
  A 0.49 0.49 0.0 0 1 142.74 32.52
  L 143.53 24.61
  Q 146.97 21.37 150.24 20.81
  Z"
/>
<path fill="#020066" d="
  M 220.86 22.93
  L 218.84 40.46
  Q 218.76 41.13 218.24 40.69
  L 211.08 34.58
  Q 209.48 30.70 210.03 27.25
  C 210.50 24.32 218.82 23.05 220.86 22.93
  Z"
/>
<path fill="#ce9966" d="
  M 259.89 96.61
  C 254.19 82.11 258.48 69.97 270.54 60.91
  A 0.91 0.90 -22.6 0 0 270.89 60.07
  Q 268.67 43.03 252.67 38.54
  Q 240.88 35.23 226.34 35.01
  L 226.86 30.29
  Q 226.92 29.75 227.46 29.75
  Q 243.63 29.50 258.40 35.32
  Q 275.08 41.89 275.60 60.03
  A 1.01 0.99 -15.9 0 1 275.09 60.93
  C 262.82 67.78 258.08 80.60 261.74 94.29
  Q 261.86 94.76 261.62 95.18
  Q 261.10 96.10 259.89 96.61
  Z"
/>
<path fill="#ce9966" d="
  M 137.52 51.30
  L 135.24 54.34
  A 0.44 0.44 0.0 0 1 134.45 54.10
  L 133.31 34.54
  A 0.79 0.78 -9.8 0 0 132.31 33.84
  L 116.07 38.58
  Q 115.60 36.58 116.74 36.25
  Q 126.21 33.54 135.70 30.57
  Q 136.16 30.43 136.19 30.91
  L 137.52 51.30
  Z"
/>
<path fill="#ce9966" d="
  M 164.09 47.05
  L 149.89 33.89
  L 152.01 31.03
  Q 152.38 30.53 152.83 30.96
  L 166.27 43.80
  Q 166.76 44.27 166.29 44.76
  L 164.09 47.05
  Z"
/>
<path fill="#020066" d="
  M 109.83 31.63
  L 110.48 49.24
  A 0.61 0.61 0.0 0 0 111.25 49.81
  L 115.44 48.68
  Q 116.13 48.50 116.22 49.21
  L 117.11 56.25
  A 0.59 0.59 0.0 0 1 116.35 56.89
  L 110.17 54.96
  L 109.90 53.15
  A 1.45 1.44 67.2 0 0 107.61 52.21
  Q 106.36 53.14 104.71 53.01
  A 0.78 0.77 2.4 0 1 104.00 52.24
  L 104.00 35.04
  A 1.03 1.03 0.0 0 1 104.59 34.11
  L 109.83 31.63
  Z"
/>
<path fill="#020066" d="
  M 359.34 32.64
  L 339.55 50.22
  Q 339.15 50.57 338.73 50.27
  Q 337.70 49.56 337.53 48.18
  Q 343.39 41.71 349.71 35.96
  Q 353.34 32.66 359.34 32.64
  Z"
/>
<path fill="#ce9966" d="
  M 77.99 70.58
  C 79.14 66.68 80.84 62.29 80.98 58.62
  C 81.31 50.14 75.40 42.84 68.20 39.16
  C 58.67 34.29 44.07 35.50 33.97 38.25
  C 29.49 39.46 23.69 42.43 18.04 43.70
  C 31.34 35.58 51.18 29.82 66.29 34.31
  C 83.33 39.37 89.09 56.26 77.99 70.58
  Z"
/>
<path fill="#ffce31" d="
  M 137.52 51.30
  L 149.89 33.89
  L 164.09 47.05
  L 146.35 65.89
  L 144.70 67.85
  Q 143.92 68.79 145.06 69.24
  Q 153.00 72.31 160.88 75.48
  C 162.98 76.32 163.61 77.73 164.84 79.43
  C 169.41 85.74 176.07 89.37 183.87 90.30
  A 1.73 1.73 0.0 0 1 185.40 92.02
  L 185.43 99.78
  Q 162.69 88.32 140.50 77.25
  Q 139.89 76.94 139.72 77.48
  Q 139.55 77.63 139.47 77.95
  Q 139.36 78.40 138.91 78.48
  Q 136.91 78.87 136.94 80.76
  Q 137.11 91.90 136.91 102.90
  L 128.04 104.08
  Q 127.49 104.15 127.39 103.60
  C 126.71 99.74 125.86 95.12 127.60 91.43
  Q 135.10 75.51 123.95 61.78
  Q 123.66 61.43 123.63 60.98
  L 122.07 41.37
  Q 121.99 40.41 121.06 40.64
  L 117.05 41.64
  Q 116.45 41.79 116.38 41.17
  L 116.07 38.58
  L 132.31 33.84
  A 0.79 0.78 -9.8 0 1 133.31 34.54
  L 134.45 54.10
  A 0.44 0.44 0.0 0 0 135.24 54.34
  L 137.52 51.30
  Z"
/>
<path fill="#ffce31" d="
  M 259.89 96.61
  C 250.41 106.16 236.24 104.57 224.38 102.73
  A 0.96 0.96 0.0 0 1 223.57 101.64
  L 230.22 55.87
  Q 230.31 55.25 229.72 55.07
  L 224.74 53.51
  A 0.67 0.67 0.0 0 1 224.28 52.79
  L 226.34 35.01
  Q 240.88 35.23 252.67 38.54
  Q 268.67 43.03 270.89 60.07
  A 0.91 0.90 -22.6 0 1 270.54 60.91
  C 258.48 69.97 254.19 82.11 259.89 96.61
  Z
  M 239.02 66.57
  Q 236.01 66.90 235.66 69.31
  Q 233.88 81.74 232.58 94.19
  Q 232.53 94.69 233.03 94.75
  Q 235.55 95.01 237.50 93.20
  Q 246.21 90.78 248.45 89.45
  C 256.00 84.95 258.69 74.24 250.21 68.82
  C 248.17 67.52 241.07 64.60 239.02 66.57
  Z"
/>
<path fill="#ce9966" d="
  M 337.06 61.64
  Q 336.97 62.23 335.96 62.80
  Q 335.41 63.10 335.05 62.59
  L 318.49 38.33
  A 1.27 1.26 61.1 0 0 316.95 37.88
  L 302.33 44.16
  Q 302.09 43.69 302.28 42.61
  Q 302.38 42.04 302.93 41.82
  L 320.31 35.12
  A 0.76 0.75 63.6 0 1 321.22 35.43
  L 337.06 61.64
  Z"
/>
<path fill="#ffce31" d="
  M 77.99 70.58
  Q 72.33 78.96 63.35 84.64
  C 61.20 85.79 60.18 86.46 60.84 89.12
  Q 64.40 103.38 68.39 117.33
  L 58.95 120.40
  Q 58.34 120.60 58.08 120.01
  L 31.05 59.72
  A 0.71 0.71 0.0 0 0 30.09 59.37
  L 24.47 62.14
  A 0.63 0.62 61.5 0 1 23.65 61.89
  L 14.45 46.29
  Q 14.16 45.79 14.67 45.52
  L 18.04 43.70
  C 23.69 42.43 29.49 39.46 33.97 38.25
  C 44.07 35.50 58.67 34.29 68.20 39.16
  C 75.40 42.84 81.31 50.14 80.98 58.62
  C 80.84 62.29 79.14 66.68 77.99 70.58
  Z
  M 53.89 53.93
  Q 51.38 55.51 51.99 57.76
  Q 54.93 68.41 58.52 79.32
  A 0.63 0.63 0.0 0 0 59.40 79.68
  Q 61.21 78.76 61.18 77.49
  Q 62.63 76.31 67.42 71.92
  C 79.25 61.10 67.28 45.79 53.89 53.93
  Z"
/>
<path fill="#ce9966" d="
  M 210.58 48.18
  Q 201.92 38.97 189.99 39.71
  C 186.87 39.90 182.84 41.30 179.16 41.71
  C 189.75 34.81 204.25 34.62 212.74 45.03
  Q 213.08 45.44 212.72 45.83
  L 210.58 48.18
  Z"
/>
<path fill="#ffce31" d="
  M 337.06 61.64
  L 355.41 44.37
  L 366.61 63.17
  L 345.58 76.62
  Q 343.87 77.08 343.14 78.45
  Q 342.88 78.92 343.28 79.28
  L 376.62 109.23
  A 1.61 1.61 0.0 0 1 377.11 110.80
  L 374.33 122.44
  Q 346.92 94.22 339.56 86.44
  Q 338.63 85.45 338.00 86.03
  Q 336.19 84.86 334.56 86.31
  Q 327.87 92.29 320.27 101.91
  L 314.42 94.16
  Q 313.99 93.60 314.67 93.41
  L 322.66 91.17
  A 0.79 0.79 0.0 0 0 323.23 90.34
  Q 322.68 84.31 320.63 78.62
  Q 320.44 78.08 320.90 77.74
  L 326.73 73.50
  Q 327.74 72.76 326.99 71.75
  L 308.29 46.69
  Q 307.97 46.26 307.48 46.48
  L 303.78 48.12
  Q 303.11 48.41 302.98 47.69
  L 302.33 44.16
  L 316.95 37.88
  A 1.27 1.26 61.1 0 1 318.49 38.33
  L 335.05 62.59
  Q 335.41 63.10 335.96 62.80
  Q 336.97 62.23 337.06 61.64
  Z"
/>
<path fill="#020066" d="
  M 297.36 37.98
  L 298.72 54.02
  A 0.52 0.51 -13.5 0 0 299.43 54.45
  L 304.83 52.28
  Q 305.63 51.96 306.16 52.65
  L 319.18 69.81
  A 0.70 0.70 0.0 0 1 319.04 70.79
  L 317.74 71.76
  Q 317.26 72.11 316.89 71.65
  Q 311.35 64.81 303.84 60.65
  Q 304.27 59.67 303.02 58.75
  Q 301.10 57.35 298.85 58.38
  Q 296.30 58.79 294.06 57.82
  Q 293.91 54.63 293.78 51.58
  C 293.53 45.61 291.49 42.43 297.36 37.98
  Z"
/>
<path fill="#ffce31" d="
  M 210.58 48.18
  L 193.95 66.72
  L 191.79 69.37
  Q 191.36 69.90 192.04 69.90
  Q 197.99 69.93 201.97 65.73
  L 205.29 63.19
  L 215.59 72.11
  Q 204.31 81.95 189.75 81.26
  C 167.67 80.21 161.54 53.99 179.16 41.71
  C 182.84 41.30 186.87 39.90 189.99 39.71
  Q 201.92 38.97 210.58 48.18
  Z
  M 181.66 51.53
  Q 173.46 59.27 181.83 68.29
  Q 182.21 68.71 182.71 68.43
  L 185.19 67.07
  L 200.22 50.25
  Q 200.57 49.85 200.20 49.47
  C 194.62 43.75 186.24 45.54 181.66 51.53
  Z"
/>
<path fill="#ce9966" d="
  M 366.61 63.17
  L 355.41 44.37
  L 357.05 42.93
  Q 357.56 42.48 357.92 43.05
  L 369.12 60.72
  Q 369.49 61.30 368.92 61.67
  L 366.61 63.17
  Z"
/>
<path fill="#020066" d="
  M 5.17 43.76
  L 21.24 70.97
  Q 21.51 71.43 21.98 71.18
  L 27.10 68.52
  A 0.50 0.49 -25.4 0 1 27.78 68.76
  L 54.34 127.87
  A 1.29 1.29 0.0 0 0 55.90 128.57
  L 77.61 121.81
  Q 75.13 124.20 70.26 126.01
  Q 61.04 129.43 51.00 132.24
  A 3.04 3.04 0.0 0 1 47.40 130.54
  L 22.77 74.66
  A 0.90 0.89 68.1 0 0 21.64 74.17
  L 17.26 75.77
  A 1.18 1.18 0.0 0 1 15.84 75.28
  L 0.00 48.93
  L 0.00 48.29
  L 5.17 43.76
  Z"
/>
<path fill="#33309a" d="
  M 185.19 67.07
  Q 178.17 61.10 181.66 51.53
  C 186.24 45.54 194.62 43.75 200.20 49.47
  Q 200.57 49.85 200.22 50.25
  L 185.19 67.07
  Z
  M 188.38 52.09
  L 185.39 54.01
  Q 185.00 54.26 185.00 54.73
  L 185.00 60.52
  A 0.45 0.45 0.0 0 0 185.74 60.86
  Q 187.43 59.41 188.32 57.38
  Q 188.52 56.92 188.92 56.61
  Q 190.92 55.10 192.10 52.92
  Q 193.50 52.14 194.02 51.11
  Q 194.29 50.59 193.72 50.45
  Q 189.32 49.41 188.38 52.09
  Z"
/>
<path fill="#020066" d="
  M 192.10 52.92
  Q 192.25 51.55 188.38 52.09
  Q 189.32 49.41 193.72 50.45
  Q 194.29 50.59 194.02 51.11
  Q 193.50 52.14 192.10 52.92
  Z"
/>
<path fill="#33309a" d="
  M 61.18 77.49
  L 53.89 53.93
  C 67.28 45.79 79.25 61.10 67.42 71.92
  Q 62.63 76.31 61.18 77.49
  Z
  M 60.97 60.18
  Q 61.46 64.42 63.27 67.61
  A 0.96 0.95 49.9 0 0 64.84 67.75
  Q 65.39 67.09 64.85 67.36
  C 69.28 65.37 67.57 55.32 60.43 57.14
  Q 59.91 57.28 60.01 57.80
  Q 60.29 59.30 60.97 60.18
  Z"
/>
<path fill="#ce9966" d="
  M 181.66 51.53
  Q 178.17 61.10 185.19 67.07
  L 182.71 68.43
  Q 182.21 68.71 181.83 68.29
  Q 173.46 59.27 181.66 51.53
  Z"
/>
<path fill="#020066" d="
  M 215.08 56.68
  Q 214.42 56.36 214.36 55.70
  Q 214.32 55.27 214.69 54.75
  Q 215.52 53.58 216.56 52.42
  A 0.41 0.41 0.0 0 1 217.27 52.73
  L 216.93 57.27
  A 0.45 0.45 0.0 0 1 216.17 57.55
  L 215.85 57.22
  Q 215.51 56.88 215.08 56.68
  Z"
/>
<path fill="#ce9966" d="
  M 53.89 53.93
  L 61.18 77.49
  Q 61.21 78.76 59.40 79.68
  A 0.63 0.63 0.0 0 1 58.52 79.32
  Q 54.93 68.41 51.99 57.76
  Q 51.38 55.51 53.89 53.93
  Z"
/>
<path fill="#020066" d="
  M 64.85 67.36
  Q 66.02 59.85 60.97 60.18
  Q 60.29 59.30 60.01 57.80
  Q 59.91 57.28 60.43 57.14
  C 67.57 55.32 69.28 65.37 64.85 67.36
  Z"
/>
<path fill="#020066" d="
  M 221.37 62.80
  L 218.23 59.34
  A 0.43 0.43 0.0 0 1 218.73 58.66
  L 222.99 60.56
  A 0.43 0.43 0.0 0 1 223.17 61.20
  L 222.04 62.77
  A 0.43 0.43 0.0 0 1 221.37 62.80
  Z"
/>
<path fill="#ce9966" d="
  M 119.76 92.54
  C 124.10 81.25 122.89 68.09 109.65 63.95
  C 104.22 62.26 98.33 63.72 92.89 65.49
  C 112.45 49.43 136.29 72.93 119.76 92.54
  Z"
/>
<path fill="#ce9966" d="
  M 215.59 72.11
  L 205.29 63.19
  L 207.91 60.57
  Q 208.35 60.12 208.82 60.55
  L 217.91 68.96
  Q 218.37 69.39 217.92 69.83
  L 215.59 72.11
  Z"
/>
<path fill="#ffce31" d="
  M 119.76 92.54
  Q 113.23 102.00 102.68 103.16
  C 90.08 104.54 80.86 95.00 82.28 82.51
  Q 83.46 72.11 92.89 65.49
  C 98.33 63.72 104.22 62.26 109.65 63.95
  C 122.89 68.09 124.10 81.25 119.76 92.54
  Z
  M 95.79 70.76
  C 83.97 79.95 102.31 95.64 111.10 84.05
  Q 118.59 79.19 115.61 70.69
  Q 115.55 70.44 115.11 69.98
  Q 114.74 69.59 114.39 70.01
  L 112.36 72.42
  Q 112.00 72.85 112.14 73.39
  L 112.73 75.60
  Q 103.58 79.27 101.96 70.99
  Q 101.87 70.56 102.02 70.14
  Q 103.42 66.37 107.19 65.79
  A 0.28 0.28 0.0 0 0 107.17 65.24
  Q 99.66 64.65 95.79 70.76
  Z"
/>
<path fill="#ce9966" d="
  M 311.50 86.98
  C 310.12 73.55 298.34 66.53 285.89 64.95
  C 299.41 63.46 312.65 71.08 315.59 84.94
  A 0.89 0.89 0.0 0 1 314.96 85.99
  L 311.50 86.98
  Z"
/>
<path fill="#ffce31" d="
  M 285.89 64.95
  C 298.34 66.53 310.12 73.55 311.50 86.98
  L 287.59 93.52
  L 284.46 94.40
  Q 283.88 94.57 284.38 94.90
  Q 289.51 98.30 295.25 96.91
  L 299.51 96.57
  L 303.64 109.63
  C 289.82 111.64 269.96 105.11 267.11 89.00
  C 265.06 77.41 274.11 66.02 285.89 64.95
  Z
  M 286.03 74.05
  Q 274.62 75.90 276.60 88.13
  Q 276.70 88.73 277.30 88.77
  L 280.27 88.98
  L 301.62 82.81
  Q 302.13 82.67 301.97 82.16
  Q 298.35 70.67 286.03 74.05
  Z"
/>
<path fill="#33309a" d="
  M 112.73 75.60
  L 115.61 70.69
  Q 118.59 79.19 111.10 84.05
  C 101.78 87.45 92.03 80.90 95.79 70.76
  Q 99.66 64.65 107.17 65.24
  A 0.28 0.28 0.0 0 1 107.19 65.79
  Q 103.42 66.37 102.02 70.14
  Q 101.87 70.56 101.96 70.99
  Q 103.58 79.27 112.73 75.60
  Z"
/>
<path fill="#ce9966" d="
  M 201.97 65.73
  Q 197.99 69.93 192.04 69.90
  Q 191.36 69.90 191.79 69.37
  L 193.95 66.72
  Q 197.73 67.11 201.97 65.73
  Z"
/>
<path fill="#ce9966" d="
  M 146.35 65.89
  L 164.86 73.04
  A 1.53 1.50 84.1 0 1 165.60 73.65
  Q 173.35 86.01 188.00 87.65
  Q 188.50 87.70 188.50 88.20
  L 188.50 100.44
  Q 188.50 101.08 187.88 100.94
  Q 186.45 100.63 185.43 99.78
  L 185.40 92.02
  A 1.73 1.73 0.0 0 0 183.87 90.30
  C 176.07 89.37 169.41 85.74 164.84 79.43
  C 163.61 77.73 162.98 76.32 160.88 75.48
  Q 153.00 72.31 145.06 69.24
  Q 143.92 68.79 144.70 67.85
  L 146.35 65.89
  Z"
/>
<path fill="#33309a" d="
  M 237.50 93.20
  Q 236.72 93.41 236.30 92.97
  Q 236.01 92.66 236.09 91.95
  Q 237.47 79.54 239.23 67.17
  A 0.55 0.53 35.1 0 0 239.16 66.81
  L 239.02 66.57
  C 241.07 64.60 248.17 67.52 250.21 68.82
  C 258.69 74.24 256.00 84.95 248.45 89.45
  Q 246.21 90.78 237.50 93.20
  Z
  M 243.95 75.53
  Q 242.20 79.49 242.99 84.26
  Q 243.18 85.38 244.85 85.01
  C 251.20 81.98 251.80 75.48 245.09 72.14
  Q 244.59 71.89 244.29 72.36
  Q 243.37 73.77 243.95 75.53
  Z"
/>
<path fill="#ce9966" d="
  M 239.02 66.57
  L 239.16 66.81
  A 0.55 0.53 35.1 0 1 239.23 67.17
  Q 237.47 79.54 236.09 91.95
  Q 236.01 92.66 236.30 92.97
  Q 236.72 93.41 237.50 93.20
  Q 235.55 95.01 233.03 94.75
  Q 232.53 94.69 232.58 94.19
  Q 233.88 81.74 235.66 69.31
  Q 236.01 66.90 239.02 66.57
  Z"
/>
<path fill="#ce9966" d="
  M 115.61 70.69
  L 112.73 75.60
  L 112.14 73.39
  Q 112.00 72.85 112.36 72.42
  L 114.39 70.01
  Q 114.74 69.59 115.11 69.98
  Q 115.55 70.44 115.61 70.69
  Z"
/>
<path fill="#ce9966" d="
  M 95.79 70.76
  C 92.03 80.90 101.78 87.45 111.10 84.05
  C 102.31 95.64 83.97 79.95 95.79 70.76
  Z"
/>
<path fill="#020066" d="
  M 244.85 85.01
  Q 247.86 77.84 243.95 75.53
  Q 243.37 73.77 244.29 72.36
  Q 244.59 71.89 245.09 72.14
  C 251.80 75.48 251.20 81.98 244.85 85.01
  Z"
/>
<path fill="#33309a" d="
  M 280.27 88.98
  Q 277.28 79.77 286.03 74.05
  Q 298.35 70.67 301.97 82.16
  Q 302.13 82.67 301.62 82.81
  L 280.27 88.98
  Z
  M 290.27 77.82
  Q 286.37 77.74 284.13 81.57
  A 0.94 0.94 0.0 0 0 284.88 82.98
  Q 289.62 83.26 293.26 80.48
  Q 294.88 81.00 295.73 80.19
  Q 296.12 79.81 295.73 79.43
  Q 293.04 76.75 290.27 77.82
  Z"
/>
<path fill="#ce9966" d="
  M 286.03 74.05
  Q 277.28 79.77 280.27 88.98
  L 277.30 88.77
  Q 276.70 88.73 276.60 88.13
  Q 274.62 75.90 286.03 74.05
  Z"
/>
<path fill="#ce9966" d="
  M 345.58 76.62
  L 379.92 107.46
  A 1.57 1.55 -62.4 0 1 380.39 108.99
  L 376.77 124.20
  A 0.45 0.44 -58.8 0 1 376.00 124.39
  L 374.33 122.44
  L 377.11 110.80
  A 1.61 1.61 0.0 0 0 376.62 109.23
  L 343.28 79.28
  Q 342.88 78.92 343.14 78.45
  Q 343.87 77.08 345.58 76.62
  Z"
/>
<path fill="#020066" d="
  M 324.50 114.00
  L 321.01 119.39
  A 1.98 1.97 -41.8 0 1 317.59 119.20
  L 316.34 116.69
  A 1.19 1.19 0.0 0 0 314.26 116.59
  C 311.46 121.05 300.63 120.46 295.84 120.17
  C 284.53 119.49 272.35 114.79 266.24 104.67
  Q 266.00 104.27 266.00 103.81
  L 266.00 103.30
  A 0.49 0.49 0.0 0 0 265.13 102.99
  C 252.55 118.82 227.77 117.20 209.83 112.42
  Q 207.76 111.87 208.07 110.01
  Q 208.97 104.63 210.76 88.51
  Q 211.04 85.99 211.00 84.61
  Q 210.98 83.88 210.38 84.30
  Q 203.46 89.20 195.01 91.26
  L 194.76 88.59
  Q 194.71 88.07 195.22 87.97
  C 199.44 87.11 203.25 86.30 207.26 84.32
  Q 208.69 83.62 210.20 83.13
  C 213.56 82.03 216.82 79.19 219.49 77.00
  A 0.53 0.53 0.0 0 1 220.35 77.50
  L 215.73 106.77
  Q 215.58 107.68 216.48 107.90
  C 232.73 111.77 250.59 113.19 264.34 101.88
  Q 264.79 101.51 265.27 101.83
  Q 266.48 102.65 267.40 103.82
  C 278.03 117.35 300.03 118.49 315.10 113.50
  Q 315.64 113.32 315.50 112.76
  L 313.55 105.18
  Q 312.73 101.99 314.74 104.59
  L 322.09 114.08
  Q 322.41 114.49 322.91 114.37
  L 324.50 114.00
  Z"
/>
<path fill="#020066" d="
  M 293.26 80.48
  L 290.27 77.82
  Q 293.04 76.75 295.73 79.43
  Q 296.12 79.81 295.73 80.19
  Q 294.88 81.00 293.26 80.48
  Z"
/>
<path fill="#ce9966" d="
  M 139.72 77.48
  L 139.72 101.85
  Q 139.72 102.45 139.13 102.54
  L 136.91 102.90
  Q 137.11 91.90 136.94 80.76
  Q 136.91 78.87 138.91 78.48
  Q 139.36 78.40 139.47 77.95
  Q 139.55 77.63 139.72 77.48
  Z"
/>
<path fill="#020066" d="
  M 112.62 107.56
  Q 105.59 113.39 97.18 113.96
  Q 83.27 114.91 74.81 102.41
  L 71.12 87.86
  Q 70.98 87.29 71.45 86.93
  L 75.83 83.62
  Q 76.48 83.12 76.46 83.94
  C 75.99 103.54 93.09 114.52 111.34 107.04
  Q 111.79 106.86 112.16 107.17
  L 112.62 107.56
  Z"
/>
<path fill="#ce9966" d="
  M 63.35 84.64
  L 71.41 115.58
  Q 71.54 116.09 71.10 116.39
  Q 69.83 117.25 68.39 117.33
  Q 64.40 103.38 60.84 89.12
  C 60.18 86.46 61.20 85.79 63.35 84.64
  Z"
/>
<path fill="#ce9966" d="
  M 338.00 86.03
  L 322.05 103.49
  Q 321.65 103.93 321.22 103.52
  Q 320.64 102.96 320.27 101.91
  Q 327.87 92.29 334.56 86.31
  Q 336.19 84.86 338.00 86.03
  Z"
/>
<path fill="#020066" d="
  M 193.95 111.92
  C 191.04 114.12 188.39 114.65 184.89 112.91
  Q 165.68 103.37 145.99 93.53
  L 145.82 87.79
  Q 145.80 87.09 146.42 87.40
  L 192.74 110.34
  Q 193.22 110.58 193.54 111.00
  Q 193.84 111.39 193.95 111.92
  Z"
/>
<path fill="#ce9966" d="
  M 287.59 93.52
  Q 290.91 95.84 295.25 96.91
  Q 289.51 98.30 284.38 94.90
  Q 283.88 94.57 284.46 94.40
  L 287.59 93.52
  Z"
/>
<path fill="#020066" d="
  M 380.25 136.91
  Q 379.93 138.33 378.47 140.00
  L 375.94 140.00
  C 361.92 126.74 349.37 111.95 335.23 98.93
  Q 336.30 96.38 338.31 94.53
  Q 338.71 94.16 339.09 94.55
  L 380.25 136.91
  Z"
/>
<path fill="#ce9966" d="
  M 303.64 109.63
  L 299.51 96.57
  L 303.23 95.99
  A 0.70 0.69 -12.4 0 1 304.00 96.48
  L 307.38 108.24
  Q 307.54 108.81 306.96 108.93
  L 303.64 109.63
  Z"
/>
<path fill="#020066" d="
  M 143.77 109.09
  Q 140.90 111.34 138.24 111.71
  Q 127.81 113.14 116.83 115.04
  A 0.75 0.75 0.0 0 1 115.96 114.42
  L 114.69 105.98
  L 120.40 101.41
  Q 121.02 100.91 121.12 101.71
  L 122.16 110.80
  A 0.57 0.56 -7.5 0 0 122.80 111.29
  L 142.01 108.64
  Q 142.56 108.56 143.07 108.79
  L 143.77 109.09
  Z"
/>
</svg>
